<svg xmlns="http://www.w3.org/2000/svg" width="24" height="24.109" viewBox="0 0 24 24.109"><path d="M24.5,7.5A11.952,11.952,0,0,0,5.7,21.918L4,28.109l6.336-1.664A11.958,11.958,0,0,0,16.047,27.9h0A11.952,11.952,0,0,0,24.5,7.5ZM16.051,25.883h0A9.931,9.931,0,0,1,10.992,24.5l-.363-.215-3.762.984,1-3.664-.234-.375a9.932,9.932,0,1,1,8.414,4.652ZM21.5,18.445c-.3-.148-1.766-.871-2.039-.969s-.473-.149-.672.148-.77.973-.945,1.172-.348.223-.645.074a8.078,8.078,0,0,1-2.4-1.484,8.937,8.937,0,0,1-1.66-2.066c-.176-.3-.019-.461.129-.609.137-.133.3-.348.449-.523a2.075,2.075,0,0,0,.3-.5.556.556,0,0,0-.027-.523c-.074-.149-.672-1.621-.922-2.219-.242-.582-.488-.5-.672-.512s-.371-.008-.57-.008a1.093,1.093,0,0,0-.8.375A3.34,3.34,0,0,0,9.98,13.293a5.824,5.824,0,0,0,1.219,3.09,13.335,13.335,0,0,0,5.1,4.5,16.563,16.563,0,0,0,1.7.629,4.152,4.152,0,0,0,1.883.121A3.074,3.074,0,0,0,21.9,20.215,2.509,2.509,0,0,0,22.07,18.8C22,18.672,21.8,18.6,21.5,18.445Z" transform="translate(-4 -4)" fill-rule="evenodd"/></svg>