<svg xmlns="http://www.w3.org/2000/svg" width="39.898" height="40" viewBox="0 0 39.898 40"><defs><style>.a{fill:#1a2639;}</style></defs><path class="a" d="M24,4A20.01,20.01,0,0,0,4.1,22l9.938,5.52A5.941,5.941,0,0,1,18,26c.059,0,.1.02.16.02,1.2-1.84,2.738-4.18,3.859-5.82,0-.078-.02-.141-.02-.2a8.007,8.007,0,0,1,2.34-5.66,8.206,8.206,0,0,1,11.32,0A8,8,0,0,1,30,28c-.059,0-.141-.02-.2-.02-1.641,1.121-3.981,2.66-5.82,3.859,0,.059.02.1.02.16a6,6,0,0,1-12,0,4.236,4.236,0,0,1,.1-1L4.18,26.6A20,20,0,1,0,24,4ZM12.1,31l4.918,2.738A1.954,1.954,0,0,0,18,34a2,2,0,0,0,.98-3.738L14.039,27.52A5.731,5.731,0,0,0,12.1,31ZM30,16a4,4,0,1,0,4,4A4,4,0,0,0,30,16Zm0,0" transform="translate(-4.102 -4)"/></svg>