<svg xmlns="http://www.w3.org/2000/svg" width="36" height="36" viewBox="0 0 36 36"><defs><style>.a{fill:#1a2639}</style></defs><g><path d="M38,6H10a4,4,0,0,0-4,4V38a4,4,0,0,0,4,4H38a4,4,0,0,0,4-4V10A4,4,0,0,0,38,6ZM35.813,31.367l-3.469.047a2.452,2.452,0,0,1-1.727-.527c-1.3-.894-2.523-3.211-3.477-2.91-.969.309-.937,2.394-.937,2.394a.974.974,0,0,1-.215.609,1.025,1.025,0,0,1-.711.23H23.723a8.643,8.643,0,0,1-6.449-2.863c-3.293-3.437-6.2-10.215-6.2-10.215s-.172-.426.012-.644c.207-.242.762-.25.762-.25l3.715-.016a1.69,1.69,0,0,1,.6.246,1.175,1.175,0,0,1,.324.438,25.176,25.176,0,0,0,1.394,2.9c1.555,2.688,2.274,3.273,2.8,2.988.77-.422.539-3.8.539-3.8a3.82,3.82,0,0,0-.387-1.773,1.738,1.738,0,0,0-1.156-.582c-.211-.027.133-.516.578-.734a8.4,8.4,0,0,1,3.246-.332,6.513,6.513,0,0,1,1.82.184c1.285.309.848,1.5.848,4.375,0,.918-.164,2.211.5,2.637.285.184.98.027,2.719-2.93a22.544,22.544,0,0,0,1.445-3.055,1.1,1.1,0,0,1,.348-.422.885.885,0,0,1,.5-.09l3.91-.023s1.176-.141,1.367.391c.2.559-.437,1.863-2.035,3.992-2.625,3.5-2.914,3.172-.738,5.2A11.632,11.632,0,0,1,36.77,29.82C37.629,31.254,35.813,31.367,35.813,31.367Zm0,0" class="a" transform="translate(-6 -6)"/></g></svg>