<svg xmlns="http://www.w3.org/2000/svg" width="40" height="34" viewBox="0 0 40 34"><defs><style>.a{fill:#1a2639;}</style></defs><path class="a" d="M8.125,8a10.776,10.776,0,0,0-1.062,5,7.289,7.289,0,0,0,.813,3.813A14.261,14.261,0,0,0,4,27.063C4,38.25,11.055,42,24,42s20-3.75,20-14.937c0-4.523-1.391-7.914-3.687-10.375A12.115,12.115,0,0,0,39.938,8c-4.773,0-8.8,3.68-8.937,3.813a32.469,32.469,0,0,0-7-.75,30.082,30.082,0,0,0-7.187.875A13.28,13.28,0,0,0,8.125,8ZM30.438,24a10.1,10.1,0,0,1,3.313.438A6.517,6.517,0,0,1,38,30.75C37.992,38.68,33.992,40,23.75,40c-7.617,0-13.812-1.43-13.812-9A7.32,7.32,0,0,1,12.5,25.438c2.336-2.234,6.016-1.125,11.25-1.125C26.125,24.313,28.43,24.023,30.438,24ZM16,28c-1.1,0-2,1.344-2,3s.9,3,2,3,2-1.344,2-3S17.1,28,16,28Zm16,0c-1.1,0-2,1.344-2,3s.9,3,2,3,2-1.344,2-3S33.1,28,32,28Zm0,0" transform="translate(-4 -8)"/></svg>