<svg xmlns="http://www.w3.org/2000/svg" width="35" height="35" viewBox="0 0 35 35"><defs><style>.a{fill:#1a2639;}</style></defs><path class="a" d="M12.722,3A9.723,9.723,0,0,0,3,12.722V28.278A9.723,9.723,0,0,0,12.722,38H28.278A9.723,9.723,0,0,0,38,28.278V12.722A9.723,9.723,0,0,0,28.278,3ZM32.167,6.889a1.944,1.944,0,1,1-1.944,1.944A1.945,1.945,0,0,1,32.167,6.889ZM20.5,10.778A9.722,9.722,0,1,1,10.778,20.5,9.723,9.723,0,0,1,20.5,10.778Zm0,3.889A5.833,5.833,0,1,0,26.333,20.5,5.833,5.833,0,0,0,20.5,14.667Z" transform="translate(-3 -3)"/></svg>